<svg width="1230" height="215" viewBox="0 0 1230 215" fill="none" xmlns="http://www.w3.org/2000/svg">
<path d="M129.292 30.2917C129.292 43.6667 115.917 83.7917 115.917 83.7917H98.0833C98.0833 83.7917 84.7083 43.6667 84.7083 30.2917C84.7083 17.9867 94.695 8 107 8C119.305 8 129.292 17.9867 129.292 30.2917ZM107 97.1667C97.1916 97.1667 89.1666 105.192 89.1666 115C89.1666 124.808 97.1916 132.833 107 132.833C116.808 132.833 124.833 124.808 124.833 115C124.833 105.192 116.808 97.1667 107 97.1667ZM143.38 53.5642C144.985 46.8767 146.322 40.4567 146.857 35.1958C176.104 49.8192 196.167 80.0467 196.167 115C196.167 164.22 156.22 204.167 107 204.167C57.78 204.167 17.8333 164.22 17.8333 115C17.8333 80.0467 37.8958 49.8192 67.1425 35.1958C67.7666 40.4567 69.015 46.9658 70.62 53.5642C49.755 66.0475 35.6666 88.8742 35.6666 115C35.6666 154.412 67.5883 186.333 107 186.333C146.412 186.333 178.333 154.412 178.333 115C178.333 88.8742 164.245 66.0475 143.38 53.5642ZM160.5 115C160.5 144.514 136.514 168.5 107 168.5C77.4858 168.5 53.5 144.514 53.5 115C53.5 97.1667 62.2383 81.3842 75.6133 71.665C77.6641 78.8875 81.4091 90.1225 81.4091 90.1225C75.1675 96.5425 71.3333 105.37 71.3333 115C71.3333 134.706 87.2941 150.667 107 150.667C126.706 150.667 142.667 134.706 142.667 115C142.667 105.37 138.832 96.5425 132.591 90.1225C132.591 90.1225 136.247 79.2442 138.387 71.665C151.762 81.3842 160.5 97.1667 160.5 115Z" fill="black"/>
<path d="M331.84 88.9C330.64 88.54 329.14 88.12 327.34 87.64C325.54 87.04 323.56 86.5 321.4 86.02C319.36 85.54 317.32 85.12 315.28 84.76C313.24 84.4 311.38 84.22 309.7 84.22C305.74 84.22 302.62 84.76 300.34 85.84C298.18 86.8 296.56 87.94 295.48 89.26C294.4 90.46 293.74 91.72 293.5 93.04C293.38 94.36 293.32 95.26 293.32 95.74C293.32 98.86 294.64 101.38 297.28 103.3C299.92 105.22 303.16 106.96 307 108.52C310.96 110.08 315.22 111.64 319.78 113.2C324.46 114.76 328.72 116.8 332.56 119.32C336.52 121.72 339.82 124.78 342.46 128.5C345.1 132.22 346.42 136.96 346.42 142.72C346.42 146.92 345.28 150.7 343 154.06C340.84 157.42 338.08 160.3 334.72 162.7C331.36 164.98 327.64 166.78 323.56 168.1C319.6 169.3 315.82 169.9 312.22 169.9C306.7 169.9 300.94 169.54 294.94 168.82C289.06 168.1 283.42 166.36 278.02 163.6C276.1 163 274.6 161.92 273.52 160.36C272.44 158.68 271.9 156.82 271.9 154.78C271.9 152.62 272.68 150.58 274.24 148.66C275.8 146.62 277.72 145.6 280 145.6C280.6 145.6 281.08 145.72 281.44 145.96C283.36 147.04 286.84 148.3 291.88 149.74C296.92 151.18 302.86 151.9 309.7 151.9C311.86 151.9 313.9 151.66 315.82 151.18C317.86 150.58 319.6 149.8 321.04 148.84C322.6 147.88 323.86 146.74 324.82 145.42C325.78 144.1 326.26 142.72 326.26 141.28C326.26 138.52 324.94 136.3 322.3 134.62C319.66 132.82 316.36 131.2 312.4 129.76C308.44 128.32 304.18 126.82 299.62 125.26C295.06 123.7 290.8 121.66 286.84 119.14C282.88 116.62 279.58 113.44 276.94 109.6C274.3 105.76 272.98 100.84 272.98 94.84C272.98 85.6 276.1 78.4 282.34 73.24C288.58 68.08 297.52 65.5 309.16 65.5C313.72 65.5 318.22 66.1 322.66 67.3C327.1 68.38 330.88 69.46 334 70.54C336.04 71.26 337.66 72.52 338.86 74.32C340.06 76 340.66 77.86 340.66 79.9C340.66 82.18 339.7 84.28 337.78 86.2C335.98 88 334 88.9 331.84 88.9ZM409.194 116.44C407.394 115.72 405.414 115.3 403.254 115.18C401.094 115.06 399.234 115 397.674 115C392.994 115 388.974 116.56 385.614 119.68C382.254 122.8 380.574 127.18 380.574 132.82C380.574 135.58 380.994 138.16 381.834 140.56C382.794 142.84 384.054 144.82 385.614 146.5C387.174 148.18 388.974 149.5 391.014 150.46C393.054 151.42 395.274 151.9 397.674 151.9C399.354 151.9 401.274 151.84 403.434 151.72C405.714 151.48 407.934 150.7 410.094 149.38C411.654 148.18 413.454 147.58 415.494 147.58C418.014 147.58 420.114 148.48 421.794 150.28C423.594 151.96 424.494 154.06 424.494 156.58C424.494 158.26 424.074 159.76 423.234 161.08C422.394 162.4 421.314 163.48 419.994 164.32C416.874 166.6 413.334 168.1 409.374 168.82C405.534 169.54 401.694 169.9 397.854 169.9C392.694 169.9 387.834 168.94 383.274 167.02C378.714 164.98 374.694 162.28 371.214 158.92C367.854 155.44 365.154 151.48 363.114 147.04C361.194 142.48 360.234 137.68 360.234 132.64C360.234 127.6 361.194 122.86 363.114 118.42C365.154 113.98 367.854 110.14 371.214 106.9C374.694 103.54 378.714 100.9 383.274 98.98C387.834 97.06 392.694 96.1 397.854 96.1C401.214 96.1 404.574 96.46 407.934 97.18C411.294 97.78 414.414 98.74 417.294 100.06C418.614 100.9 419.694 102.04 420.534 103.48C421.494 104.8 421.974 106.3 421.974 107.98C421.974 110.62 421.074 112.84 419.274 114.64C417.474 116.32 415.314 117.16 412.794 117.16C412.194 117.16 411.594 117.1 410.994 116.98C410.394 116.86 409.794 116.68 409.194 116.44ZM472.711 151.9C474.991 151.9 477.151 151.42 479.191 150.46C481.231 149.5 483.031 148.18 484.591 146.5C486.151 144.82 487.351 142.84 488.191 140.56C489.151 138.16 489.631 135.58 489.631 132.82C489.631 127.3 487.951 122.92 484.591 119.68C481.231 116.32 477.271 114.64 472.711 114.64C468.151 114.64 464.311 116.32 461.191 119.68C458.071 123.04 456.511 127.42 456.511 132.82C456.511 138.22 458.071 142.78 461.191 146.5C464.311 150.1 468.151 151.9 472.711 151.9ZM493.951 158.74C492.991 160.66 491.551 162.34 489.631 163.78C487.711 165.22 485.551 166.42 483.151 167.38C480.871 168.22 478.471 168.82 475.951 169.18C473.551 169.66 471.331 169.9 469.291 169.9C464.491 169.9 460.051 168.94 455.971 167.02C452.011 164.98 448.531 162.28 445.531 158.92C442.651 155.44 440.371 151.48 438.691 147.04C437.011 142.48 436.171 137.68 436.171 132.64C436.171 127.6 437.011 122.86 438.691 118.42C440.371 113.98 442.711 110.14 445.711 106.9C448.831 103.54 452.491 100.9 456.691 98.98C460.891 97.06 465.451 96.1 470.371 96.1C471.211 96.1 472.471 96.22 474.151 96.46C475.951 96.58 477.931 97.06 480.091 97.9C482.251 98.62 484.531 99.76 486.931 101.32C489.451 102.76 491.791 104.74 493.951 107.26L494.311 104.92C494.311 102.76 495.031 100.9 496.471 99.34C498.031 97.78 499.891 97 502.051 97C504.211 97 506.071 97.78 507.631 99.34C509.191 100.9 509.971 102.76 509.971 104.92V161.08C509.971 163.24 509.191 165.1 507.631 166.66C506.071 168.22 504.211 169 502.051 169C499.891 169 498.031 168.22 496.471 166.66C495.031 165.1 494.311 163.24 494.311 161.08L493.951 158.74ZM550.768 104.74C553.168 101.26 556.108 98.98 559.588 97.9C563.188 96.7 566.728 96.1 570.208 96.1C573.688 96.1 577.048 97 580.288 98.8C583.648 100.48 586.288 102.76 588.208 105.64C589.528 103.6 591.028 101.98 592.708 100.78C594.388 99.46 596.128 98.5 597.928 97.9C599.848 97.18 601.708 96.7 603.508 96.46C605.428 96.22 607.288 96.1 609.088 96.1C612.808 96.1 616.108 96.88 618.988 98.44C621.988 100 624.508 102.16 626.548 104.92C628.708 107.68 630.328 110.92 631.408 114.64C632.608 118.36 633.208 122.38 633.208 126.7V158.74C633.208 161.5 632.188 163.9 630.148 165.94C628.108 167.98 625.708 169 622.948 169C620.188 169 617.788 167.98 615.748 165.94C613.828 163.9 612.868 161.5 612.868 158.74V128.14C612.868 119.14 610.048 114.64 604.408 114.64C601.888 114.64 599.608 115.48 597.568 117.16C595.648 118.72 594.568 120.82 594.328 123.46C594.448 124.3 594.508 125.14 594.508 125.98C594.508 126.7 594.508 127.48 594.508 128.32V158.74C594.508 161.5 593.488 163.9 591.448 165.94C589.408 167.98 587.008 169 584.248 169C581.488 169 579.088 167.98 577.048 165.94C575.128 163.9 574.168 161.5 574.168 158.74V130.84C574.168 126.4 573.508 122.62 572.188 119.5C570.988 116.26 568.828 114.64 565.708 114.64C562.108 114.64 559.468 116.26 557.788 119.5C556.228 122.62 555.448 126.4 555.448 130.84V158.74C555.448 161.5 554.428 163.9 552.388 165.94C550.348 167.98 547.948 169 545.188 169C542.428 169 540.028 167.98 537.988 165.94C536.068 163.9 535.108 161.5 535.108 158.74V104.92C535.108 102.76 535.888 100.9 537.448 99.34C539.008 97.78 540.868 97 543.028 97C545.188 97 546.988 97.78 548.428 99.34C549.988 100.78 550.768 102.58 550.768 104.74ZM713.813 88.9C712.613 88.54 711.113 88.12 709.313 87.64C707.513 87.04 705.533 86.5 703.373 86.02C701.333 85.54 699.293 85.12 697.253 84.76C695.213 84.4 693.353 84.22 691.673 84.22C687.713 84.22 684.593 84.76 682.313 85.84C680.153 86.8 678.533 87.94 677.453 89.26C676.373 90.46 675.713 91.72 675.473 93.04C675.353 94.36 675.293 95.26 675.293 95.74C675.293 98.86 676.613 101.38 679.253 103.3C681.893 105.22 685.133 106.96 688.973 108.52C692.933 110.08 697.193 111.64 701.753 113.2C706.433 114.76 710.693 116.8 714.533 119.32C718.493 121.72 721.793 124.78 724.433 128.5C727.073 132.22 728.393 136.96 728.393 142.72C728.393 146.92 727.253 150.7 724.973 154.06C722.813 157.42 720.053 160.3 716.693 162.7C713.333 164.98 709.613 166.78 705.533 168.1C701.573 169.3 697.793 169.9 694.193 169.9C688.673 169.9 682.913 169.54 676.913 168.82C671.033 168.1 665.393 166.36 659.993 163.6C658.073 163 656.573 161.92 655.493 160.36C654.413 158.68 653.873 156.82 653.873 154.78C653.873 152.62 654.653 150.58 656.213 148.66C657.773 146.62 659.693 145.6 661.973 145.6C662.573 145.6 663.053 145.72 663.413 145.96C665.333 147.04 668.813 148.3 673.853 149.74C678.893 151.18 684.833 151.9 691.673 151.9C693.833 151.9 695.873 151.66 697.793 151.18C699.833 150.58 701.573 149.8 703.013 148.84C704.573 147.88 705.833 146.74 706.793 145.42C707.753 144.1 708.233 142.72 708.233 141.28C708.233 138.52 706.913 136.3 704.273 134.62C701.633 132.82 698.333 131.2 694.373 129.76C690.413 128.32 686.153 126.82 681.593 125.26C677.033 123.7 672.773 121.66 668.813 119.14C664.853 116.62 661.553 113.44 658.913 109.6C656.273 105.76 654.953 100.84 654.953 94.84C654.953 85.6 658.073 78.4 664.313 73.24C670.553 68.08 679.493 65.5 691.133 65.5C695.693 65.5 700.193 66.1 704.633 67.3C709.073 68.38 712.853 69.46 715.973 70.54C718.013 71.26 719.633 72.52 720.833 74.32C722.033 76 722.633 77.86 722.633 79.9C722.633 82.18 721.673 84.28 719.753 86.2C717.953 88 715.973 88.9 713.813 88.9ZM768.846 158.74C768.846 161.5 767.826 163.9 765.786 165.94C763.746 167.98 761.346 169 758.586 169C755.826 169 753.426 167.98 751.386 165.94C749.466 163.9 748.506 161.5 748.506 158.74V104.92C748.506 102.76 749.286 100.9 750.846 99.34C752.406 97.78 754.266 97 756.426 97C758.586 97 760.386 97.78 761.826 99.34C763.386 100.9 764.166 102.76 764.166 104.92C768.366 101.08 772.266 98.68 775.866 97.72C779.466 96.64 783.006 96.1 786.486 96.1C791.526 96.1 795.906 97 799.626 98.8C803.346 100.48 806.406 102.82 808.806 105.82C811.206 108.82 812.946 112.24 814.026 116.08C815.226 119.92 815.826 124 815.826 128.32V158.74C815.826 161.5 814.806 163.9 812.766 165.94C810.726 167.98 808.326 169 805.566 169C802.806 169 800.406 167.98 798.366 165.94C796.446 163.9 795.486 161.5 795.486 158.74V130.84C795.486 128.68 795.366 126.64 795.126 124.72C794.886 122.68 794.286 120.94 793.326 119.5C792.366 117.94 790.986 116.74 789.186 115.9C787.386 115.06 784.866 114.64 781.626 114.64C777.066 114.64 773.766 116.26 771.726 119.5C769.806 122.62 768.846 126.4 768.846 130.84V158.74ZM839.209 107.26C839.209 104.5 840.169 102.1 842.089 100.06C844.129 98.02 846.529 97 849.289 97C852.049 97 854.449 98.02 856.489 100.06C858.529 102.1 859.549 104.5 859.549 107.26V158.74C859.549 161.5 858.529 163.9 856.489 165.94C854.449 167.98 852.049 169 849.289 169C846.529 169 844.129 167.98 842.089 165.94C840.169 163.9 839.209 161.5 839.209 158.74V107.26ZM837.589 77.56C837.589 74.2 838.729 71.38 841.009 69.1C843.289 66.7 846.049 65.5 849.289 65.5C852.649 65.5 855.469 66.7 857.749 69.1C860.149 71.38 861.349 74.2 861.349 77.56C861.349 80.8 860.149 83.56 857.749 85.84C855.469 88.12 852.649 89.26 849.289 89.26C846.049 89.26 843.289 88.12 841.009 85.84C838.729 83.56 837.589 80.8 837.589 77.56ZM924.517 75.04C923.557 75.04 922.597 74.98 921.637 74.86C920.677 74.62 919.657 74.5 918.577 74.5C915.097 74.5 912.877 75.88 911.917 78.64C910.957 81.4 910.477 85.36 910.477 90.52V96.1H921.277C923.677 96.1 925.777 97 927.577 98.8C929.497 100.6 930.457 102.82 930.457 105.46C930.457 107.86 929.497 110.02 927.577 111.94C925.777 113.74 923.677 114.64 921.277 114.64H910.477V158.74C910.477 161.5 909.457 163.9 907.417 165.94C905.377 167.98 902.977 169 900.217 169C897.457 169 895.057 167.98 893.017 165.94C891.097 163.9 890.137 161.5 890.137 158.74V114.64H884.917C882.517 114.64 880.357 113.74 878.437 111.94C876.637 110.02 875.737 107.86 875.737 105.46C875.737 102.82 876.637 100.6 878.437 98.8C880.357 97 882.517 96.1 884.917 96.1H890.137V90.52C890.137 78.28 892.237 69.58 896.437 64.42C900.637 59.14 906.997 56.5 915.517 56.5C916.717 56.5 918.397 56.62 920.557 56.86C922.717 56.98 925.117 57.58 927.757 58.66C929.557 59.26 930.997 60.34 932.077 61.9C933.157 63.34 933.697 64.9 933.697 66.58C933.697 68.98 932.797 71.02 930.997 72.7C929.197 74.26 927.037 75.04 924.517 75.04ZM989.556 75.04C988.596 75.04 987.636 74.98 986.676 74.86C985.716 74.62 984.696 74.5 983.616 74.5C980.136 74.5 977.916 75.88 976.956 78.64C975.996 81.4 975.516 85.36 975.516 90.52V96.1H986.316C988.716 96.1 990.816 97 992.616 98.8C994.536 100.6 995.496 102.82 995.496 105.46C995.496 107.86 994.536 110.02 992.616 111.94C990.816 113.74 988.716 114.64 986.316 114.64H975.516V158.74C975.516 161.5 974.496 163.9 972.456 165.94C970.416 167.98 968.016 169 965.256 169C962.496 169 960.096 167.98 958.056 165.94C956.136 163.9 955.176 161.5 955.176 158.74V114.64H949.956C947.556 114.64 945.396 113.74 943.476 111.94C941.676 110.02 940.776 107.86 940.776 105.46C940.776 102.82 941.676 100.6 943.476 98.8C945.396 97 947.556 96.1 949.956 96.1H955.176V90.52C955.176 78.28 957.276 69.58 961.476 64.42C965.676 59.14 972.036 56.5 980.556 56.5C981.756 56.5 983.436 56.62 985.596 56.86C987.756 56.98 990.156 57.58 992.796 58.66C994.596 59.26 996.036 60.34 997.116 61.9C998.196 63.34 998.736 64.9 998.736 66.58C998.736 68.98 997.836 71.02 996.036 72.7C994.236 74.26 992.076 75.04 989.556 75.04ZM1041.86 115C1040.42 115 1038.86 115.18 1037.18 115.54C1035.5 115.9 1033.94 116.56 1032.5 117.52C1031.06 118.36 1029.8 119.5 1028.72 120.94C1027.76 122.38 1027.28 124.18 1027.28 126.34H1056.62C1056.62 124.18 1056.08 122.38 1055 120.94C1054.04 119.5 1052.78 118.36 1051.22 117.52C1049.78 116.56 1048.16 115.9 1046.36 115.54C1044.68 115.18 1043.18 115 1041.86 115ZM1027.28 139.12C1027.28 142.12 1027.88 144.52 1029.08 146.32C1030.4 148.12 1031.96 149.56 1033.76 150.64C1035.56 151.6 1037.42 152.26 1039.34 152.62C1041.26 152.86 1042.88 152.98 1044.2 152.98C1046.12 152.98 1048.28 152.8 1050.68 152.44C1053.2 152.08 1055.48 151.42 1057.52 150.46C1058.12 149.98 1058.9 149.62 1059.86 149.38C1060.82 149.02 1061.78 148.84 1062.74 148.84C1065.02 148.84 1066.94 149.68 1068.5 151.36C1070.18 152.92 1071.02 154.84 1071.02 157.12C1071.02 158.68 1070.6 160.12 1069.76 161.44C1068.92 162.64 1067.84 163.6 1066.52 164.32C1063.4 166.6 1059.86 168.1 1055.9 168.82C1052.06 169.54 1048.22 169.9 1044.38 169.9C1039.22 169.9 1034.36 169.24 1029.8 167.92C1025.24 166.48 1021.22 164.26 1017.74 161.26C1014.38 158.26 1011.68 154.48 1009.64 149.92C1007.72 145.36 1006.76 139.9 1006.76 133.54C1006.76 128.5 1007.42 123.76 1008.74 119.32C1010.06 114.76 1012.1 110.8 1014.86 107.44C1017.74 103.96 1021.34 101.2 1025.66 99.16C1030.1 97.12 1035.38 96.1 1041.5 96.1C1046.42 96.1 1050.98 96.88 1055.18 98.44C1059.38 100 1063.04 102.28 1066.16 105.28C1069.28 108.16 1071.74 111.82 1073.54 116.26C1075.34 120.58 1076.3 125.56 1076.42 131.2C1076.42 133.36 1075.64 135.22 1074.08 136.78C1072.52 138.34 1070.66 139.12 1068.5 139.12H1027.28ZM1130.96 114.64C1127.72 114.88 1125.08 115.48 1123.04 116.44C1121.12 117.28 1119.62 118.42 1118.54 119.86C1117.46 121.3 1116.68 122.98 1116.2 124.9C1115.84 126.82 1115.66 128.8 1115.66 130.84V158.74C1115.66 161.5 1114.64 163.9 1112.6 165.94C1110.56 167.98 1108.16 169 1105.4 169C1102.64 169 1100.24 167.98 1098.2 165.94C1096.28 163.9 1095.32 161.5 1095.32 158.74V104.92C1095.32 102.76 1096.1 100.9 1097.66 99.34C1099.22 97.78 1101.08 97 1103.24 97C1105.4 97 1107.2 97.78 1108.64 99.34C1110.2 100.9 1110.98 102.76 1110.98 104.92C1114.82 101.44 1118.3 99.16 1121.42 98.08C1124.66 97 1127.84 96.34 1130.96 96.1H1132.94C1135.34 96.1 1137.5 97 1139.42 98.8C1141.34 100.6 1142.3 102.82 1142.3 105.46C1142.3 107.86 1141.34 110.02 1139.42 111.94C1137.62 113.74 1135.52 114.64 1133.12 114.64H1130.96Z" fill="black"/>
</svg>
