<svg width="1351" height="904" viewBox="0 0 1351 904" fill="none" xmlns="http://www.w3.org/2000/svg">
<path d="M86.88 786.3C85.1467 785.78 82.98 785.173 80.38 784.48C77.78 783.613 74.92 782.833 71.8 782.14C68.8533 781.447 65.9067 780.84 62.96 780.32C60.0133 779.8 57.3267 779.54 54.9 779.54C49.18 779.54 44.6733 780.32 41.38 781.88C38.26 783.267 35.92 784.913 34.36 786.82C32.8 788.553 31.8467 790.373 31.5 792.28C31.3267 794.187 31.24 795.487 31.24 796.18C31.24 800.687 33.1467 804.327 36.96 807.1C40.7733 809.873 45.4533 812.387 51 814.64C56.72 816.893 62.8733 819.147 69.46 821.4C76.22 823.653 82.3733 826.6 87.92 830.24C93.64 833.707 98.4067 838.127 102.22 843.5C106.033 848.873 107.94 855.72 107.94 864.04C107.94 870.107 106.293 875.567 103 880.42C99.88 885.273 95.8933 889.433 91.04 892.9C86.1867 896.193 80.8133 898.793 74.92 900.7C69.2 902.433 63.74 903.3 58.54 903.3C50.5667 903.3 42.2467 902.78 33.58 901.74C25.0867 900.7 16.94 898.187 9.14 894.2C6.36667 893.333 4.2 891.773 2.64 889.52C1.08 887.093 0.300001 884.407 0.300001 881.46C0.300001 878.34 1.42667 875.393 3.68 872.62C5.93333 869.673 8.70667 868.2 12 868.2C12.8667 868.2 13.56 868.373 14.08 868.72C16.8533 870.28 21.88 872.1 29.16 874.18C36.44 876.26 45.02 877.3 54.9 877.3C58.02 877.3 60.9667 876.953 63.74 876.26C66.6867 875.393 69.2 874.267 71.28 872.88C73.5333 871.493 75.3533 869.847 76.74 867.94C78.1267 866.033 78.82 864.04 78.82 861.96C78.82 857.973 76.9133 854.767 73.1 852.34C69.2867 849.74 64.52 847.4 58.8 845.32C53.08 843.24 46.9267 841.073 40.34 838.82C33.7533 836.567 27.6 833.62 21.88 829.98C16.16 826.34 11.3933 821.747 7.58 816.2C3.76667 810.653 1.86 803.547 1.86 794.88C1.86 781.533 6.36667 771.133 15.38 763.68C24.3933 756.227 37.3067 752.5 54.12 752.5C60.7067 752.5 67.2067 753.367 73.62 755.1C80.0333 756.66 85.4933 758.22 90 759.78C92.9467 760.82 95.2867 762.64 97.02 765.24C98.7533 767.667 99.62 770.353 99.62 773.3C99.62 776.593 98.2333 779.627 95.46 782.4C92.86 785 90 786.3 86.88 786.3ZM198.613 826.08C196.013 825.04 193.153 824.433 190.033 824.26C186.913 824.087 184.226 824 181.973 824C175.213 824 169.406 826.253 164.553 830.76C159.7 835.267 157.273 841.593 157.273 849.74C157.273 853.727 157.88 857.453 159.093 860.92C160.48 864.213 162.3 867.073 164.553 869.5C166.806 871.927 169.406 873.833 172.353 875.22C175.3 876.607 178.506 877.3 181.973 877.3C184.4 877.3 187.173 877.213 190.293 877.04C193.586 876.693 196.793 875.567 199.913 873.66C202.166 871.927 204.766 871.06 207.713 871.06C211.353 871.06 214.386 872.36 216.813 874.96C219.413 877.387 220.713 880.42 220.713 884.06C220.713 886.487 220.106 888.653 218.893 890.56C217.68 892.467 216.12 894.027 214.213 895.24C209.706 898.533 204.593 900.7 198.873 901.74C193.326 902.78 187.78 903.3 182.233 903.3C174.78 903.3 167.76 901.913 161.173 899.14C154.586 896.193 148.78 892.293 143.753 887.44C138.9 882.413 135 876.693 132.053 870.28C129.28 863.693 127.893 856.76 127.893 849.48C127.893 842.2 129.28 835.353 132.053 828.94C135 822.527 138.9 816.98 143.753 812.3C148.78 807.447 154.586 803.633 161.173 800.86C167.76 798.087 174.78 796.7 182.233 796.7C187.086 796.7 191.94 797.22 196.793 798.26C201.646 799.127 206.153 800.513 210.313 802.42C212.22 803.633 213.78 805.28 214.993 807.36C216.38 809.267 217.073 811.433 217.073 813.86C217.073 817.673 215.773 820.88 213.173 823.48C210.573 825.907 207.453 827.12 203.813 827.12C202.946 827.12 202.08 827.033 201.213 826.86C200.346 826.687 199.48 826.427 198.613 826.08ZM290.36 877.3C293.654 877.3 296.774 876.607 299.72 875.22C302.667 873.833 305.267 871.927 307.52 869.5C309.774 867.073 311.507 864.213 312.72 860.92C314.107 857.453 314.8 853.727 314.8 849.74C314.8 841.767 312.374 835.44 307.52 830.76C302.667 825.907 296.947 823.48 290.36 823.48C283.774 823.48 278.227 825.907 273.72 830.76C269.214 835.613 266.96 841.94 266.96 849.74C266.96 857.54 269.214 864.127 273.72 869.5C278.227 874.7 283.774 877.3 290.36 877.3ZM321.04 887.18C319.654 889.953 317.574 892.38 314.8 894.46C312.027 896.54 308.907 898.273 305.44 899.66C302.147 900.873 298.68 901.74 295.04 902.26C291.574 902.953 288.367 903.3 285.42 903.3C278.487 903.3 272.074 901.913 266.18 899.14C260.46 896.193 255.434 892.293 251.1 887.44C246.94 882.413 243.647 876.693 241.22 870.28C238.794 863.693 237.58 856.76 237.58 849.48C237.58 842.2 238.794 835.353 241.22 828.94C243.647 822.527 247.027 816.98 251.36 812.3C255.867 807.447 261.154 803.633 267.22 800.86C273.287 798.087 279.874 796.7 286.98 796.7C288.194 796.7 290.014 796.873 292.44 797.22C295.04 797.393 297.9 798.087 301.02 799.3C304.14 800.34 307.434 801.987 310.9 804.24C314.54 806.32 317.92 809.18 321.04 812.82L321.56 809.44C321.56 806.32 322.6 803.633 324.68 801.38C326.934 799.127 329.62 798 332.74 798C335.86 798 338.547 799.127 340.8 801.38C343.054 803.633 344.18 806.32 344.18 809.44V890.56C344.18 893.68 343.054 896.367 340.8 898.62C338.547 900.873 335.86 902 332.74 902C329.62 902 326.934 900.873 324.68 898.62C322.6 896.367 321.56 893.68 321.56 890.56L321.04 887.18ZM403.109 809.18C406.576 804.153 410.822 800.86 415.849 799.3C421.049 797.567 426.162 796.7 431.189 796.7C436.216 796.7 441.069 798 445.749 800.6C450.602 803.027 454.416 806.32 457.189 810.48C459.096 807.533 461.262 805.193 463.689 803.46C466.116 801.553 468.629 800.167 471.229 799.3C474.002 798.26 476.689 797.567 479.289 797.22C482.062 796.873 484.749 796.7 487.349 796.7C492.722 796.7 497.489 797.827 501.649 800.08C505.982 802.333 509.622 805.453 512.569 809.44C515.689 813.427 518.029 818.107 519.589 823.48C521.322 828.853 522.189 834.66 522.189 840.9V887.18C522.189 891.167 520.716 894.633 517.769 897.58C514.822 900.527 511.356 902 507.369 902C503.382 902 499.916 900.527 496.969 897.58C494.196 894.633 492.809 891.167 492.809 887.18V842.98C492.809 829.98 488.736 823.48 480.589 823.48C476.949 823.48 473.656 824.693 470.709 827.12C467.936 829.373 466.376 832.407 466.029 836.22C466.202 837.433 466.289 838.647 466.289 839.86C466.289 840.9 466.289 842.027 466.289 843.24V887.18C466.289 891.167 464.816 894.633 461.869 897.58C458.922 900.527 455.456 902 451.469 902C447.482 902 444.016 900.527 441.069 897.58C438.296 894.633 436.909 891.167 436.909 887.18V846.88C436.909 840.467 435.956 835.007 434.049 830.5C432.316 825.82 429.196 823.48 424.689 823.48C419.489 823.48 415.676 825.82 413.249 830.5C410.996 835.007 409.869 840.467 409.869 846.88V887.18C409.869 891.167 408.396 894.633 405.449 897.58C402.502 900.527 399.036 902 395.049 902C391.062 902 387.596 900.527 384.649 897.58C381.876 894.633 380.489 891.167 380.489 887.18V809.44C380.489 806.32 381.616 803.633 383.869 801.38C386.122 799.127 388.809 798 391.929 798C395.049 798 397.649 799.127 399.729 801.38C401.982 803.46 403.109 806.06 403.109 809.18ZM638.618 786.3C636.885 785.78 634.718 785.173 632.118 784.48C629.518 783.613 626.658 782.833 623.538 782.14C620.592 781.447 617.645 780.84 614.698 780.32C611.752 779.8 609.065 779.54 606.638 779.54C600.918 779.54 596.412 780.32 593.118 781.88C589.998 783.267 587.658 784.913 586.098 786.82C584.538 788.553 583.585 790.373 583.238 792.28C583.065 794.187 582.978 795.487 582.978 796.18C582.978 800.687 584.885 804.327 588.698 807.1C592.512 809.873 597.192 812.387 602.738 814.64C608.458 816.893 614.612 819.147 621.198 821.4C627.958 823.653 634.112 826.6 639.658 830.24C645.378 833.707 650.145 838.127 653.958 843.5C657.772 848.873 659.678 855.72 659.678 864.04C659.678 870.107 658.032 875.567 654.738 880.42C651.618 885.273 647.632 889.433 642.778 892.9C637.925 896.193 632.552 898.793 626.658 900.7C620.938 902.433 615.478 903.3 610.278 903.3C602.305 903.3 593.985 902.78 585.318 901.74C576.825 900.7 568.678 898.187 560.878 894.2C558.105 893.333 555.938 891.773 554.378 889.52C552.818 887.093 552.038 884.407 552.038 881.46C552.038 878.34 553.165 875.393 555.418 872.62C557.672 869.673 560.445 868.2 563.738 868.2C564.605 868.2 565.298 868.373 565.818 868.72C568.592 870.28 573.618 872.1 580.898 874.18C588.178 876.26 596.758 877.3 606.638 877.3C609.758 877.3 612.705 876.953 615.478 876.26C618.425 875.393 620.938 874.267 623.018 872.88C625.272 871.493 627.092 869.847 628.478 867.94C629.865 866.033 630.558 864.04 630.558 861.96C630.558 857.973 628.652 854.767 624.838 852.34C621.025 849.74 616.258 847.4 610.538 845.32C604.818 843.24 598.665 841.073 592.078 838.82C585.492 836.567 579.338 833.62 573.618 829.98C567.898 826.34 563.132 821.747 559.318 816.2C555.505 810.653 553.598 803.547 553.598 794.88C553.598 781.533 558.105 771.133 567.118 763.68C576.132 756.227 589.045 752.5 605.858 752.5C612.445 752.5 618.945 753.367 625.358 755.1C631.772 756.66 637.232 758.22 641.738 759.78C644.685 760.82 647.025 762.64 648.758 765.24C650.492 767.667 651.358 770.353 651.358 773.3C651.358 776.593 649.972 779.627 647.198 782.4C644.598 785 641.738 786.3 638.618 786.3ZM718.111 887.18C718.111 891.167 716.638 894.633 713.691 897.58C710.745 900.527 707.278 902 703.291 902C699.305 902 695.838 900.527 692.891 897.58C690.118 894.633 688.731 891.167 688.731 887.18V809.44C688.731 806.32 689.858 803.633 692.111 801.38C694.365 799.127 697.051 798 700.171 798C703.291 798 705.891 799.127 707.971 801.38C710.225 803.633 711.351 806.32 711.351 809.44C717.418 803.893 723.051 800.427 728.251 799.04C733.451 797.48 738.565 796.7 743.591 796.7C750.871 796.7 757.198 798 762.571 800.6C767.945 803.027 772.365 806.407 775.831 810.74C779.298 815.073 781.811 820.013 783.371 825.56C785.105 831.107 785.971 837 785.971 843.24V887.18C785.971 891.167 784.498 894.633 781.551 897.58C778.605 900.527 775.138 902 771.151 902C767.165 902 763.698 900.527 760.751 897.58C757.978 894.633 756.591 891.167 756.591 887.18V846.88C756.591 843.76 756.418 840.813 756.071 838.04C755.725 835.093 754.858 832.58 753.471 830.5C752.085 828.247 750.091 826.513 747.491 825.3C744.891 824.087 741.251 823.48 736.571 823.48C729.985 823.48 725.218 825.82 722.271 830.5C719.498 835.007 718.111 840.467 718.111 846.88V887.18ZM819.747 812.82C819.747 808.833 821.134 805.367 823.907 802.42C826.854 799.473 830.32 798 834.307 798C838.294 798 841.76 799.473 844.707 802.42C847.654 805.367 849.127 808.833 849.127 812.82V887.18C849.127 891.167 847.654 894.633 844.707 897.58C841.76 900.527 838.294 902 834.307 902C830.32 902 826.854 900.527 823.907 897.58C821.134 894.633 819.747 891.167 819.747 887.18V812.82ZM817.407 769.92C817.407 765.067 819.054 760.993 822.347 757.7C825.64 754.233 829.627 752.5 834.307 752.5C839.16 752.5 843.234 754.233 846.527 757.7C849.994 760.993 851.727 765.067 851.727 769.92C851.727 774.6 849.994 778.587 846.527 781.88C843.234 785.173 839.16 786.82 834.307 786.82C829.627 786.82 825.64 785.173 822.347 781.88C819.054 778.587 817.407 774.6 817.407 769.92ZM942.969 766.28C941.582 766.28 940.195 766.193 938.809 766.02C937.422 765.673 935.949 765.5 934.389 765.5C929.362 765.5 926.155 767.493 924.769 771.48C923.382 775.467 922.689 781.187 922.689 788.64V796.7H938.289C941.755 796.7 944.789 798 947.389 800.6C950.162 803.2 951.549 806.407 951.549 810.22C951.549 813.687 950.162 816.807 947.389 819.58C944.789 822.18 941.755 823.48 938.289 823.48H922.689V887.18C922.689 891.167 921.215 894.633 918.269 897.58C915.322 900.527 911.855 902 907.869 902C903.882 902 900.415 900.527 897.469 897.58C894.695 894.633 893.309 891.167 893.309 887.18V823.48H885.769C882.302 823.48 879.182 822.18 876.409 819.58C873.809 816.807 872.509 813.687 872.509 810.22C872.509 806.407 873.809 803.2 876.409 800.6C879.182 798 882.302 796.7 885.769 796.7H893.309V788.64C893.309 770.96 896.342 758.393 902.409 750.94C908.475 743.313 917.662 739.5 929.969 739.5C931.702 739.5 934.129 739.673 937.249 740.02C940.369 740.193 943.835 741.06 947.649 742.62C950.249 743.487 952.329 745.047 953.889 747.3C955.449 749.38 956.229 751.633 956.229 754.06C956.229 757.527 954.929 760.473 952.329 762.9C949.729 765.153 946.609 766.28 942.969 766.28ZM1036.91 766.28C1035.53 766.28 1034.14 766.193 1032.75 766.02C1031.37 765.673 1029.89 765.5 1028.33 765.5C1023.31 765.5 1020.1 767.493 1018.71 771.48C1017.33 775.467 1016.63 781.187 1016.63 788.64V796.7H1032.23C1035.7 796.7 1038.73 798 1041.33 800.6C1044.11 803.2 1045.49 806.407 1045.49 810.22C1045.49 813.687 1044.11 816.807 1041.33 819.58C1038.73 822.18 1035.7 823.48 1032.23 823.48H1016.63V887.18C1016.63 891.167 1015.16 894.633 1012.21 897.58C1009.27 900.527 1005.8 902 1001.81 902C997.827 902 994.361 900.527 991.414 897.58C988.641 894.633 987.254 891.167 987.254 887.18V823.48H979.714C976.247 823.48 973.127 822.18 970.354 819.58C967.754 816.807 966.454 813.687 966.454 810.22C966.454 806.407 967.754 803.2 970.354 800.6C973.127 798 976.247 796.7 979.714 796.7H987.254V788.64C987.254 770.96 990.287 758.393 996.354 750.94C1002.42 743.313 1011.61 739.5 1023.91 739.5C1025.65 739.5 1028.07 739.673 1031.19 740.02C1034.31 740.193 1037.78 741.06 1041.59 742.62C1044.19 743.487 1046.27 745.047 1047.83 747.3C1049.39 749.38 1050.17 751.633 1050.17 754.06C1050.17 757.527 1048.87 760.473 1046.27 762.9C1043.67 765.153 1040.55 766.28 1036.91 766.28ZM1112.46 824C1110.38 824 1108.13 824.26 1105.7 824.78C1103.27 825.3 1101.02 826.253 1098.94 827.64C1096.86 828.853 1095.04 830.5 1093.48 832.58C1092.09 834.66 1091.4 837.26 1091.4 840.38H1133.78C1133.78 837.26 1133 834.66 1131.44 832.58C1130.05 830.5 1128.23 828.853 1125.98 827.64C1123.9 826.253 1121.56 825.3 1118.96 824.78C1116.53 824.26 1114.37 824 1112.46 824ZM1091.4 858.84C1091.4 863.173 1092.27 866.64 1094 869.24C1095.91 871.84 1098.16 873.92 1100.76 875.48C1103.36 876.867 1106.05 877.82 1108.82 878.34C1111.59 878.687 1113.93 878.86 1115.84 878.86C1118.61 878.86 1121.73 878.6 1125.2 878.08C1128.84 877.56 1132.13 876.607 1135.08 875.22C1135.95 874.527 1137.07 874.007 1138.46 873.66C1139.85 873.14 1141.23 872.88 1142.62 872.88C1145.91 872.88 1148.69 874.093 1150.94 876.52C1153.37 878.773 1154.58 881.547 1154.58 884.84C1154.58 887.093 1153.97 889.173 1152.76 891.08C1151.55 892.813 1149.99 894.2 1148.08 895.24C1143.57 898.533 1138.46 900.7 1132.74 901.74C1127.19 902.78 1121.65 903.3 1116.1 903.3C1108.65 903.3 1101.63 902.347 1095.04 900.44C1088.45 898.36 1082.65 895.153 1077.62 890.82C1072.77 886.487 1068.87 881.027 1065.92 874.44C1063.15 867.853 1061.76 859.967 1061.76 850.78C1061.76 843.5 1062.71 836.653 1064.62 830.24C1066.53 823.653 1069.47 817.933 1073.46 813.08C1077.62 808.053 1082.82 804.067 1089.06 801.12C1095.47 798.173 1103.1 796.7 1111.94 796.7C1119.05 796.7 1125.63 797.827 1131.7 800.08C1137.77 802.333 1143.05 805.627 1147.56 809.96C1152.07 814.12 1155.62 819.407 1158.22 825.82C1160.82 832.06 1162.21 839.253 1162.38 847.4C1162.38 850.52 1161.25 853.207 1159 855.46C1156.75 857.713 1154.06 858.84 1150.94 858.84H1091.4ZM1241.17 823.48C1236.49 823.827 1232.67 824.693 1229.73 826.08C1226.95 827.293 1224.79 828.94 1223.23 831.02C1221.67 833.1 1220.54 835.527 1219.85 838.3C1219.33 841.073 1219.07 843.933 1219.07 846.88V887.18C1219.07 891.167 1217.59 894.633 1214.65 897.58C1211.7 900.527 1208.23 902 1204.25 902C1200.26 902 1196.79 900.527 1193.85 897.58C1191.07 894.633 1189.69 891.167 1189.69 887.18V809.44C1189.69 806.32 1190.81 803.633 1193.07 801.38C1195.32 799.127 1198.01 798 1201.13 798C1204.25 798 1206.85 799.127 1208.93 801.38C1211.18 803.633 1212.31 806.32 1212.31 809.44C1217.85 804.413 1222.88 801.12 1227.39 799.56C1232.07 798 1236.66 797.047 1241.17 796.7H1244.03C1247.49 796.7 1250.61 798 1253.39 800.6C1256.16 803.2 1257.55 806.407 1257.55 810.22C1257.55 813.687 1256.16 816.807 1253.39 819.58C1250.79 822.18 1247.75 823.48 1244.29 823.48H1241.17Z" fill="black"/>
<path d="M653.979 87.6193C653.979 126.307 615.292 242.369 615.292 242.369H563.708C563.708 242.369 525.021 126.307 525.021 87.6193C525.021 52.0268 553.907 23.1401 589.5 23.1401C625.092 23.1401 653.979 52.0268 653.979 87.6193ZM589.5 281.057C561.129 281.057 537.917 304.269 537.917 332.64C537.917 361.011 561.129 384.223 589.5 384.223C617.871 384.223 641.083 361.011 641.083 332.64C641.083 304.269 617.871 281.057 589.5 281.057ZM694.73 154.936C699.372 135.592 703.241 117.022 704.789 101.805C789.385 144.103 847.417 231.537 847.417 332.64C847.417 475.01 731.87 590.557 589.5 590.557C447.13 590.557 331.583 475.01 331.583 332.64C331.583 231.537 389.615 144.103 474.211 101.805C476.017 117.022 479.627 135.85 484.27 154.936C423.917 191.044 383.167 257.071 383.167 332.64C383.167 446.639 475.501 538.974 589.5 538.974C703.499 538.974 795.833 446.639 795.833 332.64C795.833 257.071 755.082 191.044 694.73 154.936ZM744.25 332.64C744.25 418.011 674.87 487.39 589.5 487.39C504.13 487.39 434.75 418.011 434.75 332.64C434.75 281.057 460.026 235.406 498.713 207.293C504.645 228.184 515.478 260.681 515.478 260.681C497.424 279.251 486.333 304.785 486.333 332.64C486.333 389.64 532.5 435.807 589.5 435.807C646.499 435.807 692.667 389.64 692.667 332.64C692.667 304.785 681.576 279.251 663.522 260.681C663.522 260.681 674.097 229.216 680.287 207.293C718.974 235.406 744.25 281.057 744.25 332.64Z" fill="black"/>
</svg>
