<svg width="1311" height="242" viewBox="0 0 1311 242" fill="none" xmlns="http://www.w3.org/2000/svg">
<path d="M1157.6 121.7C1150.8 117.2 1143.3 114 1136.2 110C1131.6 107.4 1126.7 105.1 1122.7 101.8C1115.9 96.2 1117.3 85.2 1124.4 80.4C1134.6 73.6 1151.5 77.4 1153.3 91.3C1153.3 91.6 1153.6 91.8 1153.9 91.8H1169.3C1169.7 91.8 1170 91.5 1169.9 91.1C1169.1 81.5 1165.4 73.5 1158.6 68.4C1152.1 63.5 1144.7 60.9 1136.8 60.9C1096.1 60.9 1092.4 104 1114.3 117.6C1116.8 119.2 1138.3 130 1145.9 134.7C1153.5 139.4 1155.9 148 1152.6 154.8C1149.6 161 1141.8 165.3 1134 164.8C1125.5 164.3 1118.9 159.7 1116.6 152.5C1116.2 151.2 1116 148.7 1116 147.6C1116 147.3 1115.7 147 1115.4 147H1098.7C1098.4 147 1098.1 147.3 1098.1 147.6C1098.1 159.7 1101.1 166.4 1109.3 172.5C1117 178.3 1125.4 180.7 1134.1 180.7C1156.9 180.7 1168.7 167.8 1171.1 154.4C1173.2 141.3 1169.3 129.5 1157.6 121.7Z" fill="#161616"/>
<path d="M432.5 63.1H425.1H417C416.7 63.1 416.5 63.3 416.4 63.5L402.7 108.7C402.5 109.3 401.7 109.3 401.5 108.7L387.8 63.5C387.7 63.2 387.5 63.1 387.2 63.1H379.1H371.7H361.7C361.4 63.1 361.1 63.4 361.1 63.7V179.1C361.1 179.4 361.4 179.7 361.7 179.7H378.4C378.7 179.7 379 179.4 379 179.1V91.4C379 90.7 380 90.6 380.2 91.2L394 136.7L395 139.9C395.1 140.2 395.3 140.3 395.6 140.3H408.4C408.7 140.3 408.9 140.1 409 139.9L410 136.7L423.8 91.2C424 90.5 425 90.7 425 91.4V179.1C425 179.4 425.3 179.7 425.6 179.7H442.3C442.6 179.7 442.9 179.4 442.9 179.1V63.7C442.9 63.4 442.6 63.1 442.3 63.1H432.5Z" fill="#161616"/>
<path d="M901.9 63.1C901.6 63.1 901.4 63.3 901.3 63.5L887.6 108.7C887.4 109.3 886.6 109.3 886.4 108.7L872.7 63.5C872.6 63.2 872.4 63.1 872.1 63.1H846.7C846.4 63.1 846.1 63.4 846.1 63.7V179.1C846.1 179.4 846.4 179.7 846.7 179.7H863.4C863.7 179.7 864 179.4 864 179.1V91.4C864 90.7 865 90.6 865.2 91.2L879 136.7L880 139.9C880.1 140.2 880.3 140.3 880.6 140.3H893.4C893.7 140.3 893.9 140.1 894 139.9L895 136.7L908.8 91.2C909 90.5 910 90.7 910 91.4V179.1C910 179.4 910.3 179.7 910.6 179.7H927.3C927.6 179.7 927.9 179.4 927.9 179.1V63.7C927.9 63.4 927.6 63.1 927.3 63.1H901.9Z" fill="#161616"/>
<path d="M686.5 63.1H655.4H638.7H607.6C607.3 63.1 607 63.4 607 63.7V78.1C607 78.4 607.3 78.7 607.6 78.7H638.1V179.1C638.1 179.4 638.4 179.7 638.7 179.7H655.4C655.7 179.7 656 179.4 656 179.1V78.7H686.5C686.8 78.7 687.1 78.4 687.1 78.1V63.7C687.1 63.4 686.9 63.1 686.5 63.1Z" fill="#161616"/>
<path d="M785 179.7H800.2C800.6 179.7 800.9 179.3 800.8 178.9L769.4 63.1C769.3 62.8 769.1 62.7 768.8 62.7H763H752.8H747C746.7 62.7 746.5 62.9 746.4 63.1L715 178.9C714.9 179.3 715.2 179.7 715.6 179.7H730.8C731.1 179.7 731.3 179.5 731.4 179.3L740.5 145.6C740.6 145.3 740.8 145.2 741.1 145.2H774.7C775 145.2 775.2 145.4 775.3 145.6L784.4 179.3C784.5 179.5 784.8 179.7 785 179.7ZM745.1 128.7L757.3 83.6C757.5 83 758.3 83 758.5 83.6L770.7 128.7C770.8 129.1 770.5 129.5 770.1 129.5H745.7C745.3 129.5 745 129.1 745.1 128.7Z" fill="#161616"/>
<path d="M1044.2 179.7H1059.4C1059.8 179.7 1060.1 179.3 1060 178.9L1028.6 63.1C1028.5 62.8 1028.3 62.7 1028 62.7H1022.2H1012H1006.2C1005.9 62.7 1005.7 62.9 1005.6 63.1L974.2 178.9C974.1 179.3 974.4 179.7 974.8 179.7H990C990.3 179.7 990.5 179.5 990.6 179.3L999.7 145.6C999.8 145.3 1000 145.2 1000.3 145.2H1033.9C1034.2 145.2 1034.4 145.4 1034.5 145.6L1043.6 179.3C1043.7 179.5 1043.9 179.7 1044.2 179.7ZM1004.3 128.7L1016.5 83.6C1016.7 83 1017.5 83 1017.7 83.6L1029.9 128.7C1030 129.1 1029.7 129.5 1029.3 129.5H1004.9C1004.5 129.5 1004.2 129.1 1004.3 128.7Z" fill="#161616"/>
<path d="M510.7 162.6V126.8C510.7 126.5 511 126.2 511.3 126.2H555.8C556.1 126.2 556.4 125.9 556.4 125.6V111.2C556.4 110.9 556.1 110.6 555.8 110.6H511.3C511 110.6 510.7 110.3 510.7 110V79.4C510.7 79.1 511 78.8 511.3 78.8H561.9C562.2 78.8 562.5 78.5 562.5 78.2V63.8C562.5 63.5 562.2 63.2 561.9 63.2H510.7H493.4C493.1 63.2 492.8 63.5 492.8 63.8V78.8V110.7V126.3V163.3V179.1C492.8 179.4 493.1 179.7 493.4 179.7H510.7H564C564.3 179.7 564.6 179.4 564.6 179.1V163.9C564.6 163.6 564.3 163.3 564 163.3H511.2C510.9 163.2 510.7 163 510.7 162.6Z" fill="#161616"/>
<path d="M1310.2 178.7L1252.4 119C1252.2 118.8 1252.2 118.4 1252.4 118.2L1304.4 64.2C1304.8 63.8 1304.5 63.2 1304 63.2H1282.7C1282.5 63.2 1282.4 63.3 1282.3 63.4L1238.2 109.2C1237.8 109.6 1237.2 109.3 1237.2 108.8V63.8C1237.2 63.5 1236.9 63.2 1236.6 63.2H1219.9C1219.6 63.2 1219.3 63.5 1219.3 63.8V179.2C1219.3 179.5 1219.6 179.8 1219.9 179.8H1236.6C1236.9 179.8 1237.2 179.5 1237.2 179.2V128.4C1237.2 127.9 1237.9 127.6 1238.2 128L1288.2 179.6C1288.3 179.7 1288.5 179.8 1288.6 179.8H1309.9C1310.3 179.7 1310.6 179 1310.2 178.7Z" fill="#161616"/>
<path d="M247 1L145.9 76L164.7 31.8L247 1Z" fill="#E17726" stroke="#E17726" stroke-linecap="round" stroke-linejoin="round"/>
<path d="M13.8 1L114 76.7L96.1 31.8L13.8 1Z" fill="#E27625" stroke="#E27625" stroke-linecap="round" stroke-linejoin="round"/>
<path d="M210.6 174.9L183.7 216.1L241.3 232L257.8 175.8L210.6 174.9Z" fill="#E27625" stroke="#E27625" stroke-linecap="round" stroke-linejoin="round"/>
<path d="M3.09998 175.8L19.5 232L77 216.1L50.2 174.9L3.09998 175.8Z" fill="#E27625" stroke="#E27625" stroke-linecap="round" stroke-linejoin="round"/>
<path d="M73.9 105.3L57.9 129.5L114.9 132.1L113 70.6L73.9 105.3Z" fill="#E27625" stroke="#E27625" stroke-linecap="round" stroke-linejoin="round"/>
<path d="M186.9 105.3L147.2 69.9L145.9 132.1L202.9 129.5L186.9 105.3Z" fill="#E27625" stroke="#E27625" stroke-linecap="round" stroke-linejoin="round"/>
<path d="M77 216.1L111.5 199.4L81.8 176.2L77 216.1Z" fill="#E27625" stroke="#E27625" stroke-linecap="round" stroke-linejoin="round"/>
<path d="M149.3 199.4L183.7 216.1L179 176.2L149.3 199.4Z" fill="#E27625" stroke="#E27625" stroke-linecap="round" stroke-linejoin="round"/>
<path d="M183.7 216.1L149.3 199.4L152.1 221.8L151.8 231.3L183.7 216.1Z" fill="#D5BFB2" stroke="#D5BFB2" stroke-linecap="round" stroke-linejoin="round"/>
<path d="M77 216.1L109 231.3L108.8 221.8L111.5 199.4L77 216.1Z" fill="#D5BFB2" stroke="#D5BFB2" stroke-linecap="round" stroke-linejoin="round"/>
<path d="M109.6 161.4L81 153L101.2 143.7L109.6 161.4Z" fill="#233447" stroke="#233447" stroke-linecap="round" stroke-linejoin="round"/>
<path d="M151.2 161.4L159.6 143.7L179.9 153L151.2 161.4Z" fill="#233447" stroke="#233447" stroke-linecap="round" stroke-linejoin="round"/>
<path d="M77 216.1L82 174.9L50.2 175.8L77 216.1Z" fill="#CC6228" stroke="#CC6228" stroke-linecap="round" stroke-linejoin="round"/>
<path d="M178.8 174.9L183.7 216.1L210.6 175.8L178.8 174.9Z" fill="#CC6228" stroke="#CC6228" stroke-linecap="round" stroke-linejoin="round"/>
<path d="M202.9 129.5L145.9 132.1L151.2 161.4L159.6 143.7L179.9 153L202.9 129.5Z" fill="#CC6228" stroke="#CC6228" stroke-linecap="round" stroke-linejoin="round"/>
<path d="M81 153L101.2 143.7L109.6 161.4L114.9 132.1L57.9 129.5L81 153Z" fill="#CC6228" stroke="#CC6228" stroke-linecap="round" stroke-linejoin="round"/>
<path d="M57.9 129.5L81.8 176.2L81 153L57.9 129.5Z" fill="#E27525" stroke="#E27525" stroke-linecap="round" stroke-linejoin="round"/>
<path d="M179.9 153L179 176.2L202.9 129.5L179.9 153Z" fill="#E27525" stroke="#E27525" stroke-linecap="round" stroke-linejoin="round"/>
<path d="M114.9 132.1L109.6 161.4L116.3 196L117.8 150.4L114.9 132.1Z" fill="#E27525" stroke="#E27525" stroke-linecap="round" stroke-linejoin="round"/>
<path d="M145.9 132.1L143.1 150.3L144.5 196L151.2 161.4L145.9 132.1Z" fill="#E27525" stroke="#E27525" stroke-linecap="round" stroke-linejoin="round"/>
<path d="M151.2 161.4L144.5 196L149.3 199.4L179 176.2L179.9 153L151.2 161.4Z" fill="#F5841F" stroke="#F5841F" stroke-linecap="round" stroke-linejoin="round"/>
<path d="M81 153L81.8 176.2L111.5 199.4L116.3 196L109.6 161.4L81 153Z" fill="#F5841F" stroke="#F5841F" stroke-linecap="round" stroke-linejoin="round"/>
<path d="M151.8 231.3L152.1 221.8L149.5 219.6H111.3L108.8 221.8L109 231.3L77 216.1L88.2 225.3L110.9 241H149.8L172.6 225.3L183.7 216.1L151.8 231.3Z" fill="#C0AC9D" stroke="#C0AC9D" stroke-linecap="round" stroke-linejoin="round"/>
<path d="M149.3 199.4L144.5 196H116.3L111.5 199.4L108.8 221.8L111.3 219.6H149.5L152.1 221.8L149.3 199.4Z" fill="#161616" stroke="#161616" stroke-linecap="round" stroke-linejoin="round"/>
<path d="M251.3 80.9L259.8 39.5L247 1L149.3 73.5L186.9 105.3L240 120.8L251.7 107.1L246.6 103.4L254.7 96L248.5 91.2L256.6 85L251.3 80.9Z" fill="#763E1A" stroke="#763E1A" stroke-linecap="round" stroke-linejoin="round"/>
<path d="M1 39.5L9.60001 80.9L4.1 85L12.3 91.2L6.1 96L14.2 103.4L9.10001 107.1L20.8 120.8L73.9 105.3L111.5 73.5L13.8 1L1 39.5Z" fill="#763E1A" stroke="#763E1A" stroke-linecap="round" stroke-linejoin="round"/>
<path d="M240 120.8L186.9 105.3L202.9 129.5L179 176.2L210.6 175.8H257.8L240 120.8Z" fill="#F5841F" stroke="#F5841F" stroke-linecap="round" stroke-linejoin="round"/>
<path d="M73.9 105.3L20.8 120.8L3.09998 175.8H50.2L81.8 176.2L57.9 129.5L73.9 105.3Z" fill="#F5841F" stroke="#F5841F" stroke-linecap="round" stroke-linejoin="round"/>
<path d="M145.9 132.1L149.3 73.5L164.7 31.8H96.1L111.5 73.5L114.9 132.1L116.2 150.5L116.3 196H144.5L144.6 150.5L145.9 132.1Z" fill="#F5841F" stroke="#F5841F" stroke-linecap="round" stroke-linejoin="round"/>
</svg>
