<?xml version="1.0" encoding="utf-8"?>
<!-- Generator: Adobe Illustrator 22.1.0, SVG Export Plug-In . SVG Version: 6.00 Build 0)  -->
<svg version="1.1" id="图层_1" xmlns="http://www.w3.org/2000/svg" xmlns:xlink="http://www.w3.org/1999/xlink" x="0px" y="0px"
	 viewBox="0 0 398 88.7" style="enable-background:new 0 0 398 88.7;" xml:space="preserve">
<style type="text/css">
	.st0{display:none;fill:#FFFFFF;}
	.st1{display:none;}
	.st2{display:inline;fill:none;stroke:#C6C6C6;stroke-width:0.1;stroke-miterlimit:10;}
	.st3{fill:#E83A3E;}
</style>
<rect x="-95" y="-242" class="st0" width="595.3" height="841.9"/>
<g class="st1">
	<rect x="11.4" y="351.9" class="st2" width="25.4" height="34.1"/>
	<rect x="50.5" y="351.9" class="st2" width="25.4" height="34.1"/>
	<rect x="89.6" y="351.9" class="st2" width="25.4" height="34.1"/>
	<rect x="128.7" y="351.9" class="st2" width="25.4" height="34.1"/>
	<rect x="167.9" y="351.9" class="st2" width="25.4" height="34.1"/>
	<rect x="207" y="351.9" class="st2" width="25.4" height="34.1"/>
	<rect x="246.1" y="351.9" class="st2" width="25.4" height="34.1"/>
	<rect x="11.4" y="420.1" class="st2" width="25.4" height="34.1"/>
	<rect x="50.5" y="420.1" class="st2" width="25.4" height="34.1"/>
	<rect x="89.6" y="420.1" class="st2" width="25.4" height="34.1"/>
	<rect x="128.7" y="420.1" class="st2" width="25.4" height="34.1"/>
	<rect x="167.9" y="420.1" class="st2" width="25.4" height="34.1"/>
	<rect x="207" y="420.1" class="st2" width="25.4" height="34.1"/>
	<rect x="246.1" y="420.1" class="st2" width="25.4" height="34.1"/>
	<rect x="11.4" y="475.3" class="st2" width="25.4" height="34.1"/>
	<rect x="50.5" y="475.3" class="st2" width="25.4" height="34.1"/>
	<rect x="89.6" y="475.3" class="st2" width="25.4" height="34.1"/>
	<rect x="128.7" y="475.3" class="st2" width="25.4" height="34.1"/>
	<rect x="167.9" y="475.3" class="st2" width="25.4" height="34.1"/>
	<rect x="207" y="475.3" class="st2" width="25.4" height="34.1"/>
	<rect x="246.1" y="475.3" class="st2" width="25.4" height="34.1"/>
	<rect x="11.4" y="527.2" class="st2" width="25.4" height="34.1"/>
	<rect x="50.5" y="527.2" class="st2" width="25.4" height="34.1"/>
	<rect x="89.6" y="527.2" class="st2" width="25.4" height="34.1"/>
	<rect x="128.7" y="527.2" class="st2" width="25.4" height="34.1"/>
	<rect x="167.9" y="527.2" class="st2" width="25.4" height="34.1"/>
	<rect x="207" y="527.2" class="st2" width="25.4" height="34.1"/>
	<rect x="246.1" y="527.2" class="st2" width="25.4" height="34.1"/>
</g>
<g>
	<g>
		<path d="M220.3,25.3c0,0-24.3,0-24.6,0c-0.7,0-1.1,0.6-1.1,1.1c0,0.4,0,0.4,0,0.7c0,0.6,0.4,1.1,1.1,1.1c0.2,0,6.2,0,7.1,0
			c0.9,0,2,0.7,2,2.1c0,0,0,32.1,0,33.3c0,0.4,0,0.7,0,0.7c0,0.5,0.3,0.9,0.7,1c0.1,0.1,0.3,0.1,0.4,0.1c0,0,0,0,0,0
			c0.5,0,3.9,0,4.2,0c0,0,0,0,0,0c0.1,0,0.3,0,0.4-0.1c0.4-0.2,0.7-0.5,0.7-1c0-0.1,0-0.3,0-0.7c0-1.2,0-33.3,0-33.3
			c0-1.3,1.1-2.1,2-2.1c3.7,0,6.9,0,7.1,0c0.7,0,1.1-0.6,1.1-1.1c0-0.4,0-0.4,0-0.7C221.4,25.8,221,25.3,220.3,25.3z"/>
		<path d="M184.7,43.9c-0.6,0-3.9,0-11.4,0c-0.9,0-2-0.7-2-2.1c0-0.4,0-11.1,0-11.5c0-1.3,1.1-2.1,2-2.1c9.8,0,14.7,0,15,0
			c0.7,0,1.1-0.5,1.1-1.1c0-0.3,0-0.3,0-0.7c0-0.5-0.4-1.1-1.1-1.1c-0.5,0-14.4,0-17.8,0c-3.5,0-5.5,3-5.5,5.5c0,1,0,9.4,0,10.5
			c0,2.5,2,5.5,5.5,5.5c0.8,0,1.5,0,11.4,0c0.9,0,2,0.7,2,2.1c0,0.4,0,11.1,0,11.5c0,1.3-1.1,2.1-2,2.1c-9.8,0-13.9,0-14.1,0
			c-0.7,0-1.1,0.5-1.1,1.1c0,0.3,0,0.3,0,0.7c0,0.5,0.4,1.1,1.1,1.1c0.5,0,13.5,0,17,0c3.5,0,5.5-3,5.5-5.5c0-1,0-9.4,0-10.5
			C190.2,46.9,188.2,43.9,184.7,43.9z"/>
		<path d="M154.9,25.3c-0.4,0-3.9,0-4.2,0c-0.6,0-1.1,0.4-1.1,1.1c0,0.1,0,0.3,0,0.7c0,0.7,0,37,0,37.1c0,0.7,0.6,1.1,1.1,1.1
			c0.4,0,3.9,0,4.2,0c0.6,0,1.1-0.4,1.1-1.1c0-0.1,0-37.7,0-37.9C156,25.7,155.4,25.3,154.9,25.3z"/>
		<path d="M135.2,25.3c-3.4,0-12.7,0-13.2,0c0,0,0,0,0,0c0,0,0,0,0,0c-0.5,0-8.7,0-12.1,0c-3.5,0-5.5,3-5.5,5.5c0,1,0,31.6,0,32.8
			c0,0.4,0,0.7,0,0.7c0,0.7,0.5,1.1,1.1,1.1c0.3,0,3.8,0,4.2,0c0.5,0,1.1-0.4,1.1-1.1c0-0.5,0-33.6,0-34c0-1.3,1.1-2.1,2-2.1h4.4
			c1.2,0,2.1,0.9,2.1,2.1v34c0,0.7,0.6,1.1,1.1,1.1c0.4,0,3.9,0,4.2,0c0.6,0,1.1-0.4,1.1-1.1c0-0.1,0-0.3,0-0.7V30.3
			c0-1.2,0.9-2.1,2.1-2.1h4.4c0.9,0,2,0.7,2,2.1c0,0.4,0,33.5,0,34c0,0.7,0.6,1.1,1.1,1.1c0.4,0,3.9,0,4.2,0c0.6,0,1.1-0.4,1.1-1.1
			c0-0.1,0-0.3,0-0.7c0-1.2,0-31.8,0-32.8C140.8,28.3,138.8,25.3,135.2,25.3z"/>
	</g>
	<g>
		<circle class="st3" cx="46.1" cy="29.3" r="5"/>
		<g>
			<path d="M48.8,39.6c0,0-0.1-0.1-0.1-0.1l-0.1-0.1c-0.1-0.1-0.1-0.1-0.2-0.2c-0.1-0.1-0.1-0.1-0.2-0.2c0,0-0.1,0-0.1-0.1
				c-0.1-0.1-0.2-0.1-0.3-0.2c-0.1-0.1-0.2-0.1-0.3-0.2c-0.1-0.1-0.2-0.1-0.3-0.1c-0.1,0-0.2-0.1-0.3-0.1c-0.1,0-0.2,0-0.3-0.1
				c-0.1,0-0.2,0-0.3-0.1c-0.1,0-0.1,0-0.2,0c0,0-0.1,0-0.1,0c0,0-0.1,0-0.1,0c-0.1,0-0.1,0-0.2,0c-0.1,0-0.2,0-0.3,0.1
				c-0.1,0-0.2,0-0.3,0.1c-0.1,0-0.2,0.1-0.3,0.1c-0.1,0-0.2,0.1-0.3,0.1c-0.1,0-0.2,0.1-0.3,0.2c-0.1,0.1-0.2,0.1-0.3,0.2
				c0,0-0.1,0-0.1,0.1c-0.1,0.1-0.1,0.1-0.2,0.2c-0.1,0.1-0.1,0.1-0.2,0.2l-0.1,0.1c0,0-0.1,0.1-0.1,0.1l-8.8,11.6
				c-0.4,0.5-0.3,1.2,0.2,1.6l2.3,2c0.5,0.4,1.2,0.4,1.6-0.1l3.8-4.1l1,12.5c0,0.6,0.5,1.1,1.2,1.1h3c0.6,0,1.1-0.5,1.2-1.1l1-12.5
				l3.8,4.1c0.4,0.5,1.1,0.5,1.6,0.1l2.3-2c0.5-0.4,0.5-1.1,0.2-1.6L48.8,39.6z"/>
			<path d="M83.2,41.2h-1.7C80.1,24,66.3,10.2,49.1,8.7V7.1c0-1.6-1.3-2.9-2.9-2.9h-0.3c-1.6,0-2.9,1.3-2.9,2.9v1.7
				C25.8,10.2,12,24,10.5,41.2H8.9c-1.6,0-2.9,1.3-2.9,2.9v0.3c0,1.6,1.3,2.9,2.9,2.9h1.7C12,64.5,25.8,78.3,43,79.7v1.7
				c0,1.6,1.3,2.9,2.9,2.9h0.3c1.6,0,2.9-1.3,2.9-2.9v-1.7c17.2-1.5,31-15.2,32.5-32.5h1.7c1.6,0,2.9-1.3,2.9-2.9v-0.3
				C86.1,42.5,84.8,41.2,83.2,41.2z M46.1,73.8c-16.3,0-29.5-13.3-29.5-29.5c0-16.3,13.3-29.5,29.5-29.5c16.3,0,29.5,13.3,29.5,29.5
				C75.6,60.5,62.3,73.8,46.1,73.8z"/>
		</g>
	</g>
	<g>
		<path class="st3" d="M385.5,49.5c-0.6-1.7-1.4-3.1-2.7-4.1c1.3-1,2.1-2.4,2.7-4.1c0.5-1.4,4.1-13,4.3-14.1
			c0.2-0.8,0.1-1.8-1.5-1.8c-0.3,0-3.2,0-3.6,0c-0.9,0-1.6,0.7-1.8,1.7c-0.1,0.5-4.4,14.4-4.5,14.9c-0.5,1.4-1.8,2-2.8,2
			c-1.3,0-3.6,0-3.9,0c-0.5,0-0.9,0.3-1,0.7c0,0.1-0.1,0.2-0.1,0.4c0,0,0,0,0,0c0,0.3,0,0.3,0,0.7c0,0,0,0,0,0c0,0.1,0,0.3,0.1,0.4
			c0.1,0.4,0.5,0.7,1,0.7c0.2,0,2.5,0,3.9,0c1,0,2.4,0.6,2.8,2c0.1,0.4,4.4,14.4,4.5,14.9c0.3,1,0.9,1.7,1.8,1.7c0.4,0,3.3,0,3.6,0
			c1.6,0,1.7-1,1.5-1.8C389.6,62.4,386,50.9,385.5,49.5z"/>
		<path class="st3" d="M367.2,25.3c-0.4,0-3.9,0-4.2,0c-0.6,0-1.1,0.4-1.1,1.1c0,0.1,0,37.8,0,37.9c0,0.7,0.6,1.1,1.1,1.1
			c0.4,0,3.9,0,4.2,0c0.6,0,1.1-0.4,1.1-1.1c0-0.1,0-37.8,0-37.9C368.3,25.7,367.7,25.3,367.2,25.3z"/>
		<path class="st3" d="M354.1,25.2c-0.5,0-13.7,0-17.2,0c-3.5,0-5.5,3-5.5,5.5c0,0.2,0,0.9,0,2c0,0.1,0,0.3,0,0.7c0,1,0,16.9,0,23.5
			c0,0.3,0,0.5,0,0.7c0,1.1,0,1.9,0,2c0,2.5,2,5.5,5.5,5.5c3.4,0,16.7,0,17.2,0c0.7,0,1.1-0.6,1.1-1.1c0-0.4,0-0.4,0-0.7
			c0-0.6-0.4-1.1-1.1-1.1c-0.2,0-13,0-14.3,0c-0.9,0-2-0.7-2-2.1c0-0.1,0-1.1,0-2.6c0,0,0,0,0,0c0-0.2,0-5.4,0-11.1
			c0-0.9,0-1.8,0-2.6c0-5.8,0-10.9,0-11.1c0,0,0,0,0,0c0-1.5,0-2.5,0-2.6c0-1.3,1.1-2.1,2-2.1c1.3,0,14.1,0,14.3,0
			c0.7,0,1.1-0.5,1.1-1.1c0-0.3,0-0.3,0-0.7C355.3,25.8,354.8,25.2,354.1,25.2z"/>
		<path class="st3" d="M252.7,25.3c0,0-24.3,0-24.6,0c-0.7,0-1.1,0.6-1.1,1.1c0,0.4,0,0.4,0,0.7c0,0.6,0.4,1.1,1.1,1.1
			c0.2,0,6.2,0,7.1,0c0.9,0,2,0.7,2,2.1c0,0,0,34,0,34c0,0.5,0.3,0.9,0.7,1c0.1,0.1,0.3,0.1,0.4,0.1c0,0,0,0,0,0c0.5,0,3.9,0,4.2,0
			c0,0,0,0,0,0c0.1,0,0.3,0,0.4-0.1c0.4-0.2,0.7-0.5,0.7-1c0-0.1,0-34,0-34c0-1.3,1.1-2.1,2-2.1c3.7,0,6.9,0,7.1,0
			c0.7,0,1.1-0.6,1.1-1.1c0-0.4,0-0.4,0-0.7C253.8,25.8,253.4,25.3,252.7,25.3z"/>
		<path class="st3" d="M282.6,46.7c2.6-0.7,4-3.2,4-5.3c0-0.4,0-0.9,0-1.6c0-0.1,0-0.3,0-0.7c0-0.4,0-1.6,0-2.8c0-0.2,0-0.5,0-0.7
			c0-2,0-4.1,0-4.6c0-2.5-2-5.5-5.5-5.5c-2.7,0-12.4,0-16.7,0c-0.2,0-1.1,0-2,0c-0.9,0-1.8,0-1.9,0c-0.6,0-1.1,0.4-1.1,1
			c0,0.1,0,37.9,0,38.1c0,0.7,0.5,1.1,1,1.1c0.4,0,3.7,0,4,0c0.6,0,1.1-0.4,1.1-1c0,0,0-28.5,0-36.2c4.4,0,11.9,0,12.8,0
			c0.9,0,2,0.7,2,2.1c0,0.2,0,2.8,0,5.2c0,0,0,0,0,0c0,0.1,0,0.2,0,0.3c0,0.8,0,1.7,0,2.3c0,0.9,0,1.5,0,1.6c0,0,0,0,0,0
			c0,1.1,0,2,0,2.2c0,1.3-1.1,2.1-2,2.1c-1.3,0-9.2,0-9.4,0c-0.7,0-1.1,0.5-1.1,1.1c0,0.3,0,0.3,0,0.7c0,0.5,0.4,1.1,1.1,1.1h5.7
			c0.9,0,1.7,0.6,2,1.5c1.1,4.2,4.3,15.8,4.3,15.9c0.2,0.8,0.8,1.1,1.3,1.1c0.4,0,3.6,0,3.9,0c1,0,1.4-0.9,1.3-1.8
			C287,62.8,283.3,49.3,282.6,46.7z"/>
		<path class="st3" d="M317.7,30.8c-0.6-3.4-2.6-5.6-6.2-5.5c-1.5,0-4,0-5.5,0c-3.6,0-5.5,2.1-6.2,5.5c-0.2,1-6,31.5-6.3,32.9
			c-0.2,0.7-0.1,1.7,1.2,1.7c0.3,0,3.7,0,4.2,0c0.5,0,1-0.4,1.1-1.1c0.1-0.4,6.1-33.2,6.2-33.4c0.4-2.3,1.7-2.7,2.6-2.7c0,0,0,0,0,0
			s0,0,0,0c0.9,0,2.2,0.4,2.6,2.7c0,0.2,0.9,5,2,11c0.2,1-0.6,2-1.7,2h-5c-0.5,0-0.9,0.3-0.9,0.8l-0.2,1.1c-0.1,0.6,0.4,1.1,0.9,1.1
			h6.3c0.8,0,1.5,0.6,1.7,1.4c1.5,7.9,2.9,15.6,3,16c0.1,0.7,0.6,1.1,1.1,1.1c0.4,0,3.9,0,4.2,0c1.3,0,1.4-1,1.2-1.7
			C323.7,62.3,317.9,31.8,317.7,30.8z"/>
	</g>
</g>
</svg>
