<svg width="179" height="39" viewBox="0 0 179 39" fill="none" xmlns="http://www.w3.org/2000/svg">
<path d="M56.2236 19.948H56.9384C57.6854 19.948 58.2585 19.7783 58.6578 19.4389C59.0571 19.0994 59.2567 18.6115 59.2567 17.9751C59.2567 17.3387 59.0571 16.8507 58.6578 16.5113C58.2585 16.1719 57.6854 16.0022 56.9384 16.0022H56.2236V19.948ZM64.5501 28.7944H59.8363L56.2236 22.6422V28.7944H52.437V12.7988H58.3294C59.1408 12.7988 59.8491 12.9332 60.4545 13.2019C61.0598 13.4564 61.5557 13.81 61.942 14.2626C62.3413 14.7152 62.6375 15.2384 62.8307 15.8324C63.0368 16.4264 63.1398 17.0629 63.1398 17.7417C63.1398 18.958 62.8694 19.948 62.3284 20.7117C61.8004 21.4613 61.0147 21.9704 59.9715 22.2392L64.5501 28.7944Z" fill="white"/>
<path d="M67.6657 23.3214C67.6657 23.675 67.7237 24.0073 67.8396 24.3184C67.9555 24.6154 68.1101 24.8771 68.3033 25.1034C68.5093 25.3297 68.7476 25.5064 69.0181 25.6337C69.3014 25.761 69.6041 25.8247 69.9261 25.8247C70.2352 25.8247 70.525 25.761 70.7954 25.6337C71.0788 25.5064 71.317 25.3297 71.5102 25.1034C71.7163 24.8771 71.8773 24.6154 71.9932 24.3184C72.122 24.0214 72.1864 23.7032 72.1864 23.3638C72.1864 23.0244 72.122 22.7062 71.9932 22.4092C71.8773 22.098 71.7163 21.8293 71.5102 21.603C71.317 21.3767 71.0788 21.2 70.7954 21.0727C70.525 20.9454 70.2352 20.8817 69.9261 20.8817C69.6041 20.8817 69.3014 20.9454 69.0181 21.0727C68.7476 21.2 68.5093 21.3767 68.3033 21.603C68.1101 21.8293 67.9555 22.091 67.8396 22.388C67.7237 22.6708 67.6657 22.982 67.6657 23.3214ZM72.0705 17.9117H75.5866V28.7947H72.0705V27.5854C71.3235 28.6179 70.3125 29.1341 69.0374 29.1341C68.3161 29.1341 67.6529 28.9927 67.0475 28.7098C66.4422 28.4128 65.9141 28.0027 65.4634 27.4794C65.0126 26.9561 64.6584 26.3409 64.4008 25.6337C64.1561 24.9266 64.0337 24.1558 64.0337 23.3214C64.0337 22.5435 64.1561 21.8081 64.4008 21.1151C64.6455 20.408 64.9868 19.7927 65.4247 19.2695C65.8626 18.7462 66.3842 18.336 66.9896 18.039C67.5949 17.7279 68.2646 17.5723 68.9988 17.5723C70.2352 17.5723 71.2591 18.0461 72.0705 18.9937V17.9117Z" fill="white"/>
<path d="M84.7084 23.3847C84.7084 23.0453 84.6505 22.7271 84.5345 22.4301C84.4186 22.1189 84.2576 21.8502 84.0516 21.6239C83.8455 21.3977 83.6072 21.2209 83.3368 21.0936C83.0663 20.9522 82.7701 20.8814 82.4481 20.8814C82.139 20.8814 81.8492 20.9451 81.5787 21.0724C81.3083 21.1997 81.07 21.3764 80.8639 21.6027C80.6707 21.829 80.5097 22.0977 80.3809 22.4089C80.265 22.7059 80.2071 23.0241 80.2071 23.3635C80.2071 23.7029 80.265 24.0211 80.3809 24.3181C80.4969 24.6151 80.6578 24.8768 80.8639 25.1031C81.07 25.3152 81.3083 25.492 81.5787 25.6334C81.8621 25.7607 82.1583 25.8244 82.4674 25.8244C82.7765 25.8244 83.0663 25.7607 83.3368 25.6334C83.6072 25.5061 83.8391 25.3294 84.0323 25.1031C84.2383 24.8768 84.3993 24.6151 84.5152 24.3181C84.644 24.0211 84.7084 23.71 84.7084 23.3847ZM80.3037 11.1865V18.9934C81.1279 18.0458 82.1583 17.572 83.3947 17.572C84.1288 17.572 84.7986 17.7276 85.4039 18.0387C86.0221 18.3357 86.5437 18.7459 86.9688 19.2692C87.4067 19.7783 87.748 20.3864 87.9927 21.0936C88.2374 21.7866 88.3597 22.5291 88.3597 23.3211C88.3597 24.1272 88.2309 24.8839 87.9734 25.591C87.7286 26.2981 87.3809 26.9134 86.9301 27.4366C86.4793 27.9599 85.9448 28.3771 85.3266 28.6883C84.7213 28.9853 84.0645 29.1338 83.3561 29.1338C82.0681 29.1338 81.0507 28.6176 80.3037 27.5851V28.7944H76.8069V11.1865H80.3037Z" fill="white"/>
<path d="M97.0949 23.3847C97.0949 23.0453 97.0369 22.7271 96.9219 22.4301C96.8059 22.1189 96.6449 21.8502 96.4389 21.6239C96.2319 21.3977 95.9939 21.2209 95.7239 21.0936C95.4529 20.9522 95.1569 20.8814 94.8349 20.8814C94.5259 20.8814 94.236 20.9451 93.966 21.0724C93.695 21.1997 93.4569 21.3764 93.2509 21.6027C93.0579 21.829 92.8969 22.0977 92.7679 22.4089C92.6519 22.7059 92.5939 23.0241 92.5939 23.3635C92.5939 23.7029 92.6519 24.0211 92.7679 24.3181C92.8839 24.6151 93.0449 24.8768 93.2509 25.1031C93.4569 25.3152 93.695 25.492 93.966 25.6334C94.249 25.7607 94.5449 25.8244 94.8539 25.8244C95.1629 25.8244 95.4529 25.7607 95.7239 25.6334C95.9939 25.5061 96.2259 25.3294 96.4189 25.1031C96.6249 24.8768 96.7859 24.6151 96.9019 24.3181C97.0309 24.0211 97.0949 23.71 97.0949 23.3847ZM92.6909 11.1865V18.9934C93.5149 18.0458 94.5449 17.572 95.7819 17.572C96.5159 17.572 97.1859 17.7276 97.7909 18.0387C98.4089 18.3357 98.9309 18.7459 99.3559 19.2692C99.7939 19.7783 100.135 20.3864 100.38 21.0936C100.624 21.7866 100.747 22.5291 100.747 23.3211C100.747 24.1272 100.618 24.8839 100.36 25.591C100.116 26.2981 99.7679 26.9134 99.3169 27.4366C98.8659 27.9599 98.3319 28.3771 97.7139 28.6883C97.1079 28.9853 96.4509 29.1338 95.7429 29.1338C94.4549 29.1338 93.4379 28.6176 92.6909 27.5851V28.7944H89.1938V11.1865H92.6909Z" fill="white"/>
<path d="M104.646 27.3091L99.855 17.9111H103.912L106.558 23.4905L109.128 17.9111H113.146L105.187 34.2249H101.265L104.646 27.3091Z" fill="white"/>
<path d="M121.363 12.7988L123.875 23.1302L126.966 12.7988H129.979L133.07 23.1302L135.582 12.7988H139.542L135.196 28.7944H131.332L128.473 19.5237L125.613 28.7944H121.749L117.403 12.7988H121.363Z" fill="white"/>
<path d="M142.176 23.3214C142.176 23.675 142.234 24.0073 142.35 24.3184C142.465 24.6154 142.62 24.8771 142.813 25.1034C143.019 25.3297 143.258 25.5064 143.528 25.6337C143.811 25.761 144.114 25.8247 144.436 25.8247C144.745 25.8247 145.035 25.761 145.305 25.6337C145.589 25.5064 145.827 25.3297 146.02 25.1034C146.226 24.8771 146.387 24.6154 146.503 24.3184C146.632 24.0214 146.696 23.7032 146.696 23.3638C146.696 23.0244 146.632 22.7062 146.503 22.4092C146.387 22.098 146.226 21.8293 146.02 21.603C145.827 21.3767 145.589 21.2 145.305 21.0727C145.035 20.9454 144.745 20.8817 144.436 20.8817C144.114 20.8817 143.811 20.9454 143.528 21.0727C143.258 21.2 143.019 21.3767 142.813 21.603C142.62 21.8293 142.465 22.091 142.35 22.388C142.234 22.6708 142.176 22.982 142.176 23.3214ZM146.58 17.9117H150.096V28.7947H146.58V27.5854C145.833 28.6179 144.822 29.1341 143.547 29.1341C142.826 29.1341 142.163 28.9927 141.557 28.7098C140.952 28.4128 140.424 28.0027 139.973 27.4794C139.522 26.9561 139.168 26.3409 138.911 25.6337C138.666 24.9266 138.544 24.1558 138.544 23.3214C138.544 22.5435 138.666 21.8081 138.911 21.1151C139.155 20.408 139.497 19.7927 139.935 19.2695C140.373 18.7462 140.894 18.336 141.499 18.039C142.105 17.7279 142.775 17.5723 143.509 17.5723C144.745 17.5723 145.769 18.0461 146.58 18.9937V17.9117Z" fill="white"/>
<path d="M154.814 11.1865V28.7944H151.317V11.1865H154.814Z" fill="white"/>
<path d="M159.541 11.1865V28.7944H156.044V11.1865H159.541Z" fill="white"/>
<path d="M168.016 21.7728C167.9 21.2354 167.662 20.8041 167.301 20.4788C166.94 20.1535 166.503 19.9908 165.987 19.9908C165.446 19.9908 165.002 20.1464 164.654 20.4576C164.32 20.7687 164.107 21.2071 164.017 21.7728H168.016ZM163.92 24.0003C163.92 25.655 164.629 26.4824 166.045 26.4824C166.805 26.4824 167.378 26.143 167.765 25.4641H171.146C170.463 27.9533 168.756 29.1978 166.026 29.1978C165.189 29.1978 164.423 29.0635 163.727 28.7948C163.032 28.5119 162.433 28.1159 161.93 27.6068C161.441 27.0976 161.061 26.4895 160.791 25.7823C160.52 25.0752 160.385 24.2832 160.385 23.4063C160.385 22.5012 160.514 21.688 160.771 20.9667C161.029 20.2313 161.396 19.609 161.872 19.0998C162.349 18.5907 162.922 18.2018 163.592 17.9331C164.274 17.6502 165.041 17.5088 165.891 17.5088C166.728 17.5088 167.481 17.6502 168.151 17.9331C168.821 18.2018 169.388 18.5978 169.851 19.1211C170.315 19.6443 170.669 20.2878 170.914 21.0516C171.158 21.8011 171.281 22.6497 171.281 23.5973V24.0003H163.92Z" fill="white"/>
<path d="M176.155 21.1149V28.7945H172.658V21.1149H171.499V17.9115H172.658V14.6445H176.155V17.9115H178.145V21.1149H176.155Z" fill="white"/>
<path d="M42.7138 22.1812C44.394 18.4123 36.0878 7.8828 28.1525 3.496C23.1507 0.097559 17.9388 0.564438 16.8832 2.0566C14.5666 5.3313 24.554 8.1061 31.2333 11.3441C29.7975 11.9702 28.4445 13.0939 27.6488 14.531C25.1587 11.8013 19.6933 9.4506 13.2801 11.3441C8.95844 12.6201 5.36684 15.6283 3.97864 20.1719C3.64134 20.0214 3.26794 19.9377 2.87504 19.9377C1.37254 19.9377 0.154541 21.1607 0.154541 22.6693C0.154541 24.178 1.37254 25.4009 2.87504 25.4009C3.15354 25.4009 4.02424 25.2134 4.02424 25.2134L17.9388 25.3146C12.374 34.1788 7.97634 35.4746 7.97634 37.0103C7.97634 38.5459 12.1842 38.1298 13.7641 37.5574C21.3275 34.8171 29.4509 26.2769 30.8449 23.8185C36.6987 24.5518 41.6183 24.6386 42.7138 22.1812Z" fill="url(#paint0_linear_235_34)"/>
<path fill-rule="evenodd" clip-rule="evenodd" d="M31.2339 11.3451C31.5435 11.2227 31.4934 10.7635 31.4084 10.403C31.213 9.57421 27.8417 6.2315 24.6758 4.7342C20.3622 2.6942 17.1857 2.7992 16.7161 3.7394C17.5947 5.5478 21.6685 7.2457 25.9233 9.019C27.7385 9.7755 29.5869 10.5467 31.2339 11.3451Z" fill="url(#paint1_linear_235_34)"/>
<path fill-rule="evenodd" clip-rule="evenodd" d="M25.7584 29.5454C24.886 29.2106 23.9005 28.9035 22.7801 28.6248C23.9748 26.4784 24.2255 23.3008 23.0972 21.2918C21.5138 18.4724 19.5262 16.9717 14.9075 16.9717C12.3672 16.9717 5.5275 17.8309 5.4061 23.5639C5.3934 24.1654 5.40579 24.7167 5.44919 25.2237L17.9388 25.3146C16.255 27.9967 14.678 29.9859 13.2974 31.4985C14.9551 31.925 16.323 32.2831 17.5788 32.6118C18.7705 32.9237 19.8612 33.2092 21.0027 33.5017C22.7248 32.2419 24.3438 30.8682 25.7584 29.5454Z" fill="url(#paint2_linear_235_34)"/>
<path d="M3.81204 24.6347C4.32224 28.9898 6.78724 30.6966 11.8242 31.2017C16.8611 31.7068 19.7504 31.3678 23.5969 31.7192C26.8096 32.0127 29.6781 33.6567 30.7422 33.0886C31.7 32.5774 31.1642 30.7302 29.8827 29.5452C28.2215 28.0091 25.9225 26.9411 21.8772 26.562C22.6833 24.3456 22.4574 21.2381 21.2054 19.5473C19.395 17.1026 16.0534 15.9973 11.8242 16.4802C7.40564 16.9848 3.17174 19.1691 3.81204 24.6347Z" fill="url(#paint3_linear_235_34)"/>
<defs>
<linearGradient id="paint0_linear_235_34" x1="12.7769" y1="18.8437" x2="42.37" y2="27.2014" gradientUnits="userSpaceOnUse">
<stop stop-color="white"/>
<stop offset="1" stop-color="white"/>
</linearGradient>
<linearGradient id="paint1_linear_235_34" x1="37.372" y1="18.2792" x2="15.9445" y2="-3.1127" gradientUnits="userSpaceOnUse">
<stop stop-color="#8697FF"/>
<stop offset="1" stop-color="#8697FF" stop-opacity="0"/>
</linearGradient>
<linearGradient id="paint2_linear_235_34" x1="26.3522" y1="30.2936" x2="5.81119" y2="18.5324" gradientUnits="userSpaceOnUse">
<stop stop-color="#8697FF"/>
<stop offset="1" stop-color="#8697FF" stop-opacity="0"/>
</linearGradient>
<linearGradient id="paint3_linear_235_34" x1="14.5426" y1="18.6222" x2="28.4688" y2="36.2444" gradientUnits="userSpaceOnUse">
<stop stop-color="white"/>
<stop offset="0.983895" stop-color="#D1D8FF"/>
</linearGradient>
</defs>
</svg>
